<?xml version="1.0" encoding="UTF-8"?>
<svg xmlns="http://www.w3.org/2000/svg" xmlns:xlink="http://www.w3.org/1999/xlink" width="118px" height="44px" viewBox="0 0 118 44" version="1.1">
<defs>
<clipPath id="clip1">
  <path d="M 0.800781 9 L 9 9 L 9 13 L 0.800781 13 Z M 0.800781 9 "/>
</clipPath>
<clipPath id="clip2">
  <path d="M 6 7.601562 L 9 7.601562 L 9 16 L 6 16 Z M 6 7.601562 "/>
</clipPath>
<clipPath id="clip3">
  <path d="M 0.800781 14 L 25 14 L 25 30 L 0.800781 30 Z M 0.800781 14 "/>
</clipPath>
<clipPath id="clip4">
  <path d="M 105 16 L 116.800781 16 L 116.800781 36.058594 L 105 36.058594 Z M 105 16 "/>
</clipPath>
</defs>
<g id="surface1">
<g clip-path="url(#clip1)" clip-rule="nonzero">
<path style=" stroke:none;fill-rule:nonzero;fill:rgb(33.333334%,13.725491%,2.352941%);fill-opacity:1;" d="M 4.441406 12.519531 C 6.453125 12.519531 8.085938 11.808594 8.085938 10.9375 C 8.085938 10.070312 6.453125 9.359375 4.441406 9.359375 C 2.429688 9.359375 0.800781 10.070312 0.800781 10.9375 C 0.800781 11.808594 2.429688 12.519531 4.441406 12.519531 Z M 4.441406 12.519531 "/>
</g>
<g clip-path="url(#clip2)" clip-rule="nonzero">
<path style=" stroke:none;fill-rule:nonzero;fill:rgb(33.333334%,13.725491%,2.352941%);fill-opacity:1;" d="M 8.886719 7.601562 L 6.96875 7.601562 L 6.96875 16 L 8.886719 16 Z M 8.886719 7.601562 "/>
</g>
<g clip-path="url(#clip3)" clip-rule="nonzero">
<path style=" stroke:none;fill-rule:evenodd;fill:rgb(33.333334%,13.725491%,2.352941%);fill-opacity:1;" d="M 24.871094 21.253906 C 24.875 19.859375 24.464844 18.496094 23.699219 17.332031 C 22.929688 16.167969 21.839844 15.253906 20.558594 14.707031 C 19.277344 14.15625 17.863281 13.992188 16.488281 14.238281 C 15.117188 14.488281 13.847656 15.128906 12.835938 16.089844 C 11.828125 15.128906 10.558594 14.480469 9.183594 14.234375 C 7.808594 13.988281 6.394531 14.148438 5.109375 14.699219 C 3.828125 15.246094 2.734375 16.164062 1.96875 17.328125 C 1.199219 18.492188 0.789062 19.859375 0.792969 21.253906 L 0.792969 29.382812 L 5.234375 29.382812 L 5.234375 21.253906 C 5.234375 20.539062 5.515625 19.855469 6.023438 19.351562 C 6.527344 18.84375 7.210938 18.5625 7.925781 18.5625 C 8.640625 18.5625 9.324219 18.84375 9.832031 19.351562 C 10.335938 19.855469 10.621094 20.539062 10.621094 21.253906 L 10.621094 29.382812 L 15.054688 29.382812 L 15.054688 21.253906 C 15.054688 20.539062 15.335938 19.855469 15.84375 19.351562 C 16.347656 18.84375 17.03125 18.5625 17.746094 18.5625 C 18.460938 18.5625 19.144531 18.84375 19.652344 19.351562 C 20.15625 19.855469 20.441406 20.539062 20.441406 21.253906 L 20.441406 29.382812 L 24.871094 29.382812 Z M 24.871094 21.253906 "/>
</g>
<path style=" stroke:none;fill-rule:evenodd;fill:rgb(33.333334%,13.725491%,2.352941%);fill-opacity:1;" d="M 37.414062 23.816406 C 37.414062 23.101562 37.699219 22.417969 38.203125 21.910156 C 38.710938 21.40625 39.394531 21.121094 40.109375 21.121094 C 40.824219 21.121094 41.507812 21.40625 42.011719 21.910156 C 42.519531 22.417969 42.800781 23.101562 42.800781 23.816406 L 42.800781 29.382812 L 47.234375 29.382812 L 47.234375 23.816406 C 47.234375 21.925781 46.484375 20.113281 45.148438 18.777344 C 43.8125 17.441406 42 16.6875 40.109375 16.6875 C 38.21875 16.6875 36.40625 17.441406 35.070312 18.777344 C 33.734375 20.113281 32.984375 21.925781 32.984375 23.816406 L 32.984375 29.382812 L 37.414062 29.382812 Z M 37.414062 23.816406 "/>
<path style=" stroke:none;fill-rule:nonzero;fill:rgb(33.333334%,13.725491%,2.352941%);fill-opacity:1;" d="M 8.414062 20.65625 L 8.324219 20.65625 C 7.386719 20.65625 6.628906 21.417969 6.628906 22.355469 L 6.628906 24.753906 C 6.628906 25.691406 7.386719 26.449219 8.324219 26.449219 L 8.414062 26.449219 C 9.347656 26.449219 10.109375 25.691406 10.109375 24.753906 L 10.109375 22.355469 C 10.109375 21.417969 9.347656 20.65625 8.414062 20.65625 Z M 8.414062 20.65625 "/>
<path style=" stroke:none;fill-rule:nonzero;fill:rgb(33.333334%,13.725491%,2.352941%);fill-opacity:1;" d="M 18.320312 20.65625 L 18.230469 20.65625 C 17.296875 20.65625 16.535156 21.417969 16.535156 22.355469 L 16.535156 24.753906 C 16.535156 25.691406 17.296875 26.449219 18.230469 26.449219 L 18.320312 26.449219 C 19.253906 26.449219 20.015625 25.691406 20.015625 24.753906 L 20.015625 22.355469 C 20.015625 21.417969 19.253906 20.65625 18.320312 20.65625 Z M 18.320312 20.65625 "/>
<path style=" stroke:none;fill-rule:nonzero;fill:rgb(33.333334%,13.725491%,2.352941%);fill-opacity:1;" d="M 31.144531 19.539062 L 26.710938 19.539062 L 26.710938 29.382812 L 31.144531 29.382812 Z M 31.144531 19.539062 "/>
<path style=" stroke:none;fill-rule:nonzero;fill:rgb(33.333334%,13.725491%,2.352941%);fill-opacity:1;" d="M 97.695312 11.667969 L 93.261719 11.667969 L 93.261719 29.382812 L 97.695312 29.382812 Z M 97.695312 11.667969 "/>
<path style=" stroke:none;fill-rule:nonzero;fill:rgb(33.333334%,13.725491%,2.352941%);fill-opacity:1;" d="M 103.78125 11.667969 L 99.347656 11.667969 L 99.347656 29.382812 L 103.78125 29.382812 Z M 103.78125 11.667969 "/>
<g clip-path="url(#clip4)" clip-rule="nonzero">
<path style=" stroke:none;fill-rule:evenodd;fill:rgb(33.333334%,13.725491%,2.352941%);fill-opacity:1;" d="M 112.367188 16.101562 L 112.367188 24.945312 C 112.011719 24.949219 111.664062 24.878906 111.335938 24.742188 C 111.011719 24.609375 110.714844 24.410156 110.464844 24.160156 C 110.214844 23.910156 110.015625 23.613281 109.878906 23.289062 C 109.742188 22.960938 109.671875 22.609375 109.671875 22.257812 L 109.671875 16.101562 L 105.238281 16.101562 L 105.238281 22.257812 C 105.238281 24.140625 105.984375 25.949219 107.3125 27.28125 C 108.640625 28.617188 110.441406 29.375 112.324219 29.382812 C 112.21875 30.011719 111.894531 30.578125 111.410156 30.988281 C 110.921875 31.398438 110.308594 31.625 109.671875 31.625 L 109.671875 36.0625 C 111.5625 36.0625 113.375 35.3125 114.710938 33.976562 C 116.050781 32.636719 116.800781 30.824219 116.800781 28.9375 L 116.800781 16.101562 Z M 112.367188 16.101562 "/>
</g>
<path style=" stroke:none;fill-rule:evenodd;fill:rgb(33.333334%,13.725491%,2.352941%);fill-opacity:1;" d="M 52.914062 22.234375 L 52.914062 20.539062 L 56.503906 20.539062 L 56.503906 16.101562 L 52.914062 16.101562 L 52.914062 13.253906 L 48.480469 13.253906 L 48.480469 22.257812 C 48.480469 24.148438 49.230469 25.960938 50.570312 27.296875 C 51.90625 28.632812 53.71875 29.382812 55.609375 29.382812 L 55.609375 24.945312 C 55.253906 24.949219 54.90625 24.878906 54.578125 24.742188 C 54.25 24.609375 53.953125 24.410156 53.703125 24.160156 C 53.453125 23.910156 53.257812 23.613281 53.121094 23.289062 C 52.984375 22.960938 52.914062 22.609375 52.914062 22.257812 Z M 52.914062 22.234375 "/>
<path style=" stroke:none;fill-rule:nonzero;fill:rgb(33.333334%,13.725491%,2.352941%);fill-opacity:1;" d="M 28.929688 18.320312 C 30.152344 18.320312 31.144531 17.328125 31.144531 16.101562 C 31.144531 14.878906 30.152344 13.886719 28.929688 13.886719 C 27.703125 13.886719 26.710938 14.878906 26.710938 16.101562 C 26.710938 17.328125 27.703125 18.320312 28.929688 18.320312 Z M 28.929688 18.320312 "/>
<path style=" stroke:none;fill-rule:evenodd;fill:rgb(33.333334%,13.725491%,2.352941%);fill-opacity:1;" d="M 72.953125 23.445312 C 74.007812 22.574219 74.765625 21.398438 75.128906 20.078125 C 75.492188 18.757812 75.4375 17.355469 74.972656 16.070312 C 74.507812 14.78125 73.660156 13.667969 72.539062 12.878906 C 71.417969 12.09375 70.082031 11.667969 68.714844 11.667969 L 62.667969 11.667969 L 62.667969 16.101562 L 68.714844 16.101562 C 69.003906 16.101562 69.292969 16.160156 69.5625 16.269531 C 69.832031 16.382812 70.074219 16.546875 70.28125 16.75 C 70.484375 16.957031 70.648438 17.203125 70.761719 17.46875 C 70.871094 17.738281 70.929688 18.027344 70.929688 18.316406 C 70.929688 18.609375 70.871094 18.898438 70.761719 19.167969 C 70.648438 19.433594 70.484375 19.679688 70.28125 19.886719 C 70.074219 20.089844 69.832031 20.253906 69.5625 20.367188 C 69.292969 20.476562 69.003906 20.535156 68.714844 20.535156 L 62.667969 20.535156 L 62.667969 29.378906 L 67.101562 29.378906 L 67.101562 24.972656 L 68.773438 24.972656 C 69.308594 26.277344 70.222656 27.394531 71.398438 28.179688 C 72.570312 28.964844 73.953125 29.386719 75.363281 29.386719 L 75.363281 24.945312 C 74.863281 24.945312 74.371094 24.804688 73.945312 24.539062 C 73.515625 24.277344 73.171875 23.898438 72.953125 23.445312 Z M 72.953125 23.445312 "/>
<path style=" stroke:none;fill-rule:nonzero;fill:rgb(33.333334%,13.725491%,2.352941%);fill-opacity:1;" d="M 89 22.234375 C 88.804688 19.027344 85.9375 16.6875 82.707031 16.6875 C 81.667969 16.6875 80.648438 16.941406 79.730469 17.425781 C 78.816406 17.910156 78.03125 18.613281 77.449219 19.46875 C 76.867188 20.328125 76.503906 21.3125 76.390625 22.34375 C 76.277344 23.375 76.417969 24.417969 76.800781 25.382812 C 77.183594 26.34375 77.796875 27.199219 78.585938 27.871094 C 79.375 28.542969 80.316406 29.011719 81.328125 29.234375 C 82.339844 29.460938 83.390625 29.433594 84.390625 29.15625 C 85.390625 28.878906 86.304688 28.363281 87.058594 27.652344 C 88.351562 28.769531 90.003906 29.386719 91.714844 29.382812 L 91.714844 24.945312 C 90.996094 24.941406 90.308594 24.65625 89.800781 24.148438 C 89.292969 23.640625 89.003906 22.953125 89 22.234375 Z M 82.707031 24.960938 C 82.324219 24.960938 81.953125 24.847656 81.636719 24.636719 C 81.324219 24.425781 81.074219 24.125 80.929688 23.773438 C 80.785156 23.421875 80.746094 23.035156 80.820312 22.664062 C 80.894531 22.289062 81.078125 21.945312 81.347656 21.679688 C 81.617188 21.410156 81.960938 21.226562 82.332031 21.152344 C 82.707031 21.078125 83.089844 21.117188 83.441406 21.261719 C 83.792969 21.410156 84.09375 21.65625 84.304688 21.972656 C 84.515625 22.289062 84.628906 22.660156 84.628906 23.039062 C 84.625 23.550781 84.425781 24.039062 84.0625 24.398438 C 83.703125 24.757812 83.214844 24.960938 82.707031 24.960938 Z M 82.707031 24.960938 "/>
</g>
</svg>
